<?xml version="1.0" standalone="no"?>
<!DOCTYPE svg PUBLIC "-//W3C//DTD SVG 20010904//EN"
 "http://www.w3.org/TR/2001/REC-SVG-20010904/DTD/svg10.dtd">
<svg version="1.0" xmlns="http://www.w3.org/2000/svg"
 width="1000.000000pt" height="1000.000000pt" viewBox="0 0 1000.000000 1000.000000"
 preserveAspectRatio="xMidYMid meet">
<metadata>
Created by potrace 1.11, written by Peter Selinger 2001-2013
</metadata>
<g transform="translate(0.000000,1000.000000) scale(0.100000,-0.100000)"
fill="#000000" stroke="none">
<path d="M7168 8500 c-154 -154 -283 -280 -286 -280 -3 0 -29 23 -58 50 -86
81 -149 98 -230 61 -61 -28 -97 -80 -102 -150 -5 -70 10 -103 79 -174 40 -41
47 -53 37 -65 -7 -8 -133 -135 -280 -282 l-267 -267 -48 49 c-68 69 -120 92
-187 84 -95 -12 -156 -84 -156 -183 0 -56 22 -98 86 -162 24 -24 44 -45 44
-47 0 -9 -215 -214 -224 -214 -6 0 -27 5 -46 10 -60 18 -221 50 -289 58 -123
13 -459 7 -556 -11 -152 -29 -150 -28 -215 -46 -388 -105 -766 -352 -1023
-668 -55 -68 -161 -224 -199 -292 l-17 -31 -216 0 -215 0 -1 80 c-1 44 -2 83
-4 88 -33 120 -187 172 -283 95 -55 -44 -71 -84 -72 -180 l0 -83 -399 0 -399
0 -4 93 c-4 103 -17 132 -79 177 -28 20 -50 27 -91 28 -64 2 -110 -19 -150
-69 -34 -43 -36 -50 -37 -151 l-1 -78 -333 0 c-260 0 -334 -3 -334 -12 -1 -7
-6 -38 -12 -68 -6 -30 -13 -71 -16 -90 -3 -19 -8 -42 -10 -50 -2 -8 -6 -37
-10 -64 -3 -27 -7 -54 -8 -60 -1 -8 102 -12 361 -14 l362 -2 0 -580 0 -580
-365 0 c-287 0 -363 -3 -360 -12 2 -7 7 -31 10 -53 13 -93 47 -279 51 -287 3
-4 153 -8 335 -8 l329 0 1 -77 c1 -102 3 -109 36 -151 73 -90 200 -97 274 -15
39 43 49 77 49 163 l0 80 375 0 375 0 0 -21 c0 -12 11 -42 24 -68 13 -25 29
-65 35 -87 6 -23 17 -47 25 -53 11 -9 -37 -62 -246 -271 -143 -143 -265 -260
-269 -260 -5 0 -28 20 -50 44 -52 56 -126 90 -180 82 -99 -14 -161 -84 -161
-181 0 -59 16 -90 77 -154 l55 -58 -231 -231 c-163 -163 -229 -237 -225 -248
8 -21 139 -211 174 -254 l29 -35 256 256 256 256 409 -410 409 -409 -259 -258
-258 -258 87 -64 c49 -36 116 -84 151 -107 l63 -43 236 237 236 236 51 -49
c66 -63 94 -79 142 -84 104 -11 194 67 199 172 3 58 -28 120 -89 177 l-44 42
281 281 280 281 51 -49 c61 -59 102 -82 153 -84 115 -4 204 93 189 204 -7 50
-24 79 -86 140 l-48 48 151 151 151 152 50 -13 c133 -32 217 -49 295 -58 85
-9 397 -9 482 0 159 18 386 78 524 138 409 177 726 450 948 815 l54 90 155 3
156 2 4 -92 c4 -104 17 -133 79 -178 95 -68 242 -14 274 103 2 4 3 43 4 87 l1
80 399 0 399 0 4 -95 c4 -87 6 -97 34 -131 46 -57 88 -76 157 -71 66 6 94 21
134 73 25 34 28 47 31 131 l4 93 408 0 c225 0 411 3 413 8 3 4 8 23 11 42 3
19 10 58 15 85 5 28 12 70 16 95 4 25 10 64 15 88 l7 42 -443 0 -444 0 0 580
0 580 445 0 c351 0 443 3 440 13 -3 6 -12 57 -20 112 -22 139 -25 155 -33 195
l-8 35 -411 3 -411 2 -4 95 c-4 87 -6 97 -34 131 -79 99 -208 99 -287 2 -33
-42 -35 -49 -36 -150 l-1 -78 -367 0 -368 0 -32 40 c-26 31 -33 48 -33 83 l0
44 234 234 c128 129 245 245 259 258 l26 23 49 -51 c56 -57 103 -81 161 -81
76 0 130 35 162 105 36 77 19 142 -56 224 -30 32 -55 61 -55 64 0 2 129 133
286 290 l285 286 -42 63 c-74 110 -163 228 -172 228 -5 0 -147 -138 -315 -306
l-305 -306 -409 409 -409 409 305 306 c168 168 306 309 306 312 0 11 -275 206
-291 206 -6 0 -137 -126 -291 -280z m129 -1218 c216 -217 393 -397 393 -402 0
-4 -124 -132 -277 -285 l-276 -277 -410 410 -409 409 279 279 c218 219 281
277 292 269 8 -5 191 -187 408 -403z m-461 -1264 c-74 -76 -68 -77 -116 5
-121 204 -284 391 -470 539 -113 90 -105 84 -223 155 l-78 46 28 30 c15 17 41
43 56 57 l28 27 408 -408 409 -409 -42 -42z m-4396 -1018 l0 -580 -400 0 -400
0 0 580 0 580 400 0 400 0 0 -580z m636 558 c-14 -49 -56 -256 -63 -313 -10
-77 -10 -389 0 -480 10 -98 16 -129 39 -220 35 -141 50 -125 -112 -125 l-140
0 0 580 0 580 141 0 141 0 -6 -22z m4004 -558 l0 -580 -80 0 c-44 0 -80 3 -80
6 0 3 11 49 24 102 42 170 51 255 50 477 0 229 -11 320 -58 501 -9 34 -16 65
-16 68 0 3 36 6 80 6 l80 0 0 -580z m1160 0 l0 -580 -400 0 -400 0 0 580 0
580 400 0 400 0 0 -580z m-4930 -1070 c157 -253 411 -502 661 -647 l80 -46
-28 -30 c-15 -16 -59 -61 -97 -98 -67 -67 -70 -69 -89 -52 -29 27 -797 795
-797 798 0 2 44 47 97 100 72 73 99 94 105 84 5 -8 35 -57 68 -109z m7 -1431
c-153 -153 -280 -279 -282 -279 -6 0 -806 804 -808 812 -1 5 122 134 273 287
l275 278 411 -409 411 -409 -280 -280z"/>
</g>
</svg>
